<?xml version="1.0" encoding="UTF-8" standalone="no"?>
<!DOCTYPE svg PUBLIC "-//W3C//DTD SVG 1.1//EN"
 "http://www.w3.org/Graphics/SVG/1.1/DTD/svg11.dtd">
<!-- Generated by graphviz version 10.0.1 (20240210.2158)
 -->
<!-- Title: emulazione_git.c Pages: 1 -->
<svg width="319pt" height="140pt"
 viewBox="0.00 0.00 319.00 140.00" xmlns="http://www.w3.org/2000/svg" xmlns:xlink="http://www.w3.org/1999/xlink">
<g id="graph0" class="graph" transform="scale(1 1) rotate(0) translate(4 136)">
<title>emulazione_git.c</title>
<!-- Node1 -->
<g id="Node000001" class="node">
<title>Node1</title>
<g id="a_Node000001"><a xlink:title="Source file per funzioni riguardanti i GIT.">
<polygon fill="#999999" stroke="#666666" points="197.12,-132 107.62,-132 107.62,-112 197.12,-112 197.12,-132"/>
<text text-anchor="middle" x="152.38" y="-118.5" font-family="Helvetica,sans-Serif" font-size="10.00">emulazione_git.c</text>
</a>
</g>
</g>
<!-- Node2 -->
<g id="Node000002" class="node">
<title>Node2</title>
<g id="a_Node000002"><a xlink:href="emulazione__git_8h.html" target="_top" xlink:title="Header file per funzioni riguardanti i GIT.">
<polygon fill="white" stroke="#666666" points="197.12,-76 107.62,-76 107.62,-56 197.12,-56 197.12,-76"/>
<text text-anchor="middle" x="152.38" y="-62.5" font-family="Helvetica,sans-Serif" font-size="10.00">emulazione_git.h</text>
</a>
</g>
</g>
<!-- Node1&#45;&gt;Node2 -->
<g id="edge1_Node000001_Node000002" class="edge">
<title>Node1&#45;&gt;Node2</title>
<g id="a_edge1_Node000001_Node000002"><a xlink:title=" ">
<path fill="none" stroke="#63b8ff" d="M152.38,-111.59C152.38,-105.01 152.38,-95.96 152.38,-87.73"/>
<polygon fill="#63b8ff" stroke="#63b8ff" points="155.88,-87.81 152.38,-77.81 148.88,-87.81 155.88,-87.81"/>
</a>
</g>
</g>
<!-- Node3 -->
<g id="Node000003" class="node">
<title>Node3</title>
<g id="a_Node000003"><a xlink:title=" ">
<polygon fill="#e0e0e0" stroke="#999999" points="46.75,-20 0,-20 0,0 46.75,0 46.75,-20"/>
<text text-anchor="middle" x="23.38" y="-6.5" font-family="Helvetica,sans-Serif" font-size="10.00">xil_io.h</text>
</a>
</g>
</g>
<!-- Node2&#45;&gt;Node3 -->
<g id="edge2_Node000002_Node000003" class="edge">
<title>Node2&#45;&gt;Node3</title>
<g id="a_edge2_Node000002_Node000003"><a xlink:title=" ">
<path fill="none" stroke="#63b8ff" d="M129.9,-55.59C109.59,-47.09 79.42,-34.46 56.37,-24.81"/>
<polygon fill="#63b8ff" stroke="#63b8ff" points="57.99,-21.7 47.42,-21.06 55.29,-28.15 57.99,-21.7"/>
</a>
</g>
</g>
<!-- Node4 -->
<g id="Node000004" class="node">
<title>Node4</title>
<g id="a_Node000004"><a xlink:title=" ">
<polygon fill="#e0e0e0" stroke="#999999" points="110,-20 64.75,-20 64.75,0 110,0 110,-20"/>
<text text-anchor="middle" x="87.38" y="-6.5" font-family="Helvetica,sans-Serif" font-size="10.00">stdio.h</text>
</a>
</g>
</g>
<!-- Node2&#45;&gt;Node4 -->
<g id="edge3_Node000002_Node000004" class="edge">
<title>Node2&#45;&gt;Node4</title>
<g id="a_edge3_Node000002_Node000004"><a xlink:title=" ">
<path fill="none" stroke="#63b8ff" d="M141.05,-55.59C131.73,-47.85 118.3,-36.69 107.2,-27.47"/>
<polygon fill="#63b8ff" stroke="#63b8ff" points="109.66,-24.96 99.73,-21.27 105.19,-30.35 109.66,-24.96"/>
</a>
</g>
</g>
<!-- Node5 -->
<g id="Node000005" class="node">
<title>Node5</title>
<g id="a_Node000005"><a xlink:title=" ">
<polygon fill="#e0e0e0" stroke="#999999" points="176.5,-20 128.25,-20 128.25,0 176.5,0 176.5,-20"/>
<text text-anchor="middle" x="152.38" y="-6.5" font-family="Helvetica,sans-Serif" font-size="10.00">stdint.h</text>
</a>
</g>
</g>
<!-- Node2&#45;&gt;Node5 -->
<g id="edge4_Node000002_Node000005" class="edge">
<title>Node2&#45;&gt;Node5</title>
<g id="a_edge4_Node000002_Node000005"><a xlink:title=" ">
<path fill="none" stroke="#63b8ff" d="M152.38,-55.59C152.38,-49.01 152.38,-39.96 152.38,-31.73"/>
<polygon fill="#63b8ff" stroke="#63b8ff" points="155.88,-31.81 152.38,-21.81 148.88,-31.81 155.88,-31.81"/>
</a>
</g>
</g>
<!-- Node6 -->
<g id="Node000006" class="node">
<title>Node6</title>
<g id="a_Node000006"><a xlink:title=" ">
<polygon fill="#e0e0e0" stroke="#999999" points="242.12,-20 194.62,-20 194.62,0 242.12,0 242.12,-20"/>
<text text-anchor="middle" x="218.38" y="-6.5" font-family="Helvetica,sans-Serif" font-size="10.00">xgpio.h</text>
</a>
</g>
</g>
<!-- Node2&#45;&gt;Node6 -->
<g id="edge5_Node000002_Node000006" class="edge">
<title>Node2&#45;&gt;Node6</title>
<g id="a_edge5_Node000002_Node000006"><a xlink:title=" ">
<path fill="none" stroke="#63b8ff" d="M163.87,-55.59C173.34,-47.85 186.98,-36.69 198.25,-27.47"/>
<polygon fill="#63b8ff" stroke="#63b8ff" points="200.32,-30.3 205.84,-21.26 195.88,-24.88 200.32,-30.3"/>
</a>
</g>
</g>
<!-- Node7 -->
<g id="Node000007" class="node">
<title>Node7</title>
<g id="a_Node000007"><a xlink:title=" ">
<polygon fill="#e0e0e0" stroke="#999999" points="311,-20 259.75,-20 259.75,0 311,0 311,-20"/>
<text text-anchor="middle" x="285.38" y="-6.5" font-family="Helvetica,sans-Serif" font-size="10.00">assert.h</text>
</a>
</g>
</g>
<!-- Node2&#45;&gt;Node7 -->
<g id="edge6_Node000002_Node000007" class="edge">
<title>Node2&#45;&gt;Node7</title>
<g id="a_edge6_Node000002_Node000007"><a xlink:title=" ">
<path fill="none" stroke="#63b8ff" d="M175.54,-55.59C196.58,-47.05 227.87,-34.35 251.68,-24.68"/>
<polygon fill="#63b8ff" stroke="#63b8ff" points="252.68,-28.05 260.63,-21.05 250.04,-21.57 252.68,-28.05"/>
</a>
</g>
</g>
</g>
</svg>
