<?xml version="1.0" encoding="UTF-8" standalone="no"?>
<!DOCTYPE svg PUBLIC "-//W3C//DTD SVG 1.1//EN"
 "http://www.w3.org/Graphics/SVG/1.1/DTD/svg11.dtd">
<!-- Generated by graphviz version 10.0.1 (20240210.2158)
 -->
<!-- Title: gestione_periferiche.c Pages: 1 -->
<svg width="537pt" height="252pt"
 viewBox="0.00 0.00 536.62 252.00" xmlns="http://www.w3.org/2000/svg" xmlns:xlink="http://www.w3.org/1999/xlink">
<g id="graph0" class="graph" transform="scale(1 1) rotate(0) translate(4 248)">
<title>gestione_periferiche.c</title>
<!-- Node1 -->
<g id="Node000001" class="node">
<title>Node1</title>
<g id="a_Node000001"><a xlink:title="init_periferiche.c">
<polygon fill="#999999" stroke="#666666" points="425.38,-244 314.88,-244 314.88,-224 425.38,-224 425.38,-244"/>
<text text-anchor="middle" x="370.12" y="-230.5" font-family="Helvetica,sans-Serif" font-size="10.00">gestione_periferiche.c</text>
</a>
</g>
</g>
<!-- Node2 -->
<g id="Node000002" class="node">
<title>Node2</title>
<g id="a_Node000002"><a xlink:href="gestione__periferiche_8h.html" target="_top" xlink:title="Inizialli.">
<polygon fill="white" stroke="#666666" points="425.38,-188 314.88,-188 314.88,-168 425.38,-168 425.38,-188"/>
<text text-anchor="middle" x="370.12" y="-174.5" font-family="Helvetica,sans-Serif" font-size="10.00">gestione_periferiche.h</text>
</a>
</g>
</g>
<!-- Node1&#45;&gt;Node2 -->
<g id="edge1_Node000001_Node000002" class="edge">
<title>Node1&#45;&gt;Node2</title>
<g id="a_edge1_Node000001_Node000002"><a xlink:title=" ">
<path fill="none" stroke="#63b8ff" d="M370.12,-223.59C370.12,-217.01 370.12,-207.96 370.12,-199.73"/>
<polygon fill="#63b8ff" stroke="#63b8ff" points="373.63,-199.81 370.13,-189.81 366.63,-199.81 373.63,-199.81"/>
</a>
</g>
</g>
<!-- Node3 -->
<g id="Node000003" class="node">
<title>Node3</title>
<g id="a_Node000003"><a xlink:href="gestione__comunicazione_8h.html" target="_top" xlink:title="Header file per funzioni riguardanti la lettura dei telegrammi e la loro manipolazione.">
<polygon fill="white" stroke="#666666" points="267.88,-132 136.38,-132 136.38,-112 267.88,-112 267.88,-132"/>
<text text-anchor="middle" x="202.12" y="-118.5" font-family="Helvetica,sans-Serif" font-size="10.00">gestione_comunicazione.h</text>
</a>
</g>
</g>
<!-- Node2&#45;&gt;Node3 -->
<g id="edge2_Node000002_Node000003" class="edge">
<title>Node2&#45;&gt;Node3</title>
<g id="a_edge2_Node000002_Node000003"><a xlink:title=" ">
<path fill="none" stroke="#63b8ff" d="M340.86,-167.59C313.57,-158.82 272.61,-145.66 242.27,-135.9"/>
<polygon fill="#63b8ff" stroke="#63b8ff" points="243.65,-132.67 233.06,-132.94 241.51,-139.33 243.65,-132.67"/>
</a>
</g>
</g>
<!-- Node14 -->
<g id="Node000014" class="node">
<title>Node14</title>
<g id="a_Node000014"><a xlink:title=" ">
<polygon fill="#e0e0e0" stroke="#999999" points="366.75,-132 285.5,-132 285.5,-112 366.75,-112 366.75,-132"/>
<text text-anchor="middle" x="326.12" y="-118.5" font-family="Helvetica,sans-Serif" font-size="10.00">xil_exception.h</text>
</a>
</g>
</g>
<!-- Node2&#45;&gt;Node14 -->
<g id="edge13_Node000002_Node000014" class="edge">
<title>Node2&#45;&gt;Node14</title>
<g id="a_edge13_Node000002_Node000014"><a xlink:title=" ">
<path fill="none" stroke="#63b8ff" d="M362.46,-167.59C356.53,-160.32 348.14,-150.02 340.91,-141.15"/>
<polygon fill="#63b8ff" stroke="#63b8ff" points="343.69,-139.01 334.66,-133.47 338.26,-143.43 343.69,-139.01"/>
</a>
</g>
</g>
<!-- Node15 -->
<g id="Node000015" class="node">
<title>Node15</title>
<g id="a_Node000015"><a xlink:title=" ">
<polygon fill="#e0e0e0" stroke="#999999" points="443.12,-132 385.12,-132 385.12,-112 443.12,-112 443.12,-132"/>
<text text-anchor="middle" x="414.12" y="-118.5" font-family="Helvetica,sans-Serif" font-size="10.00">xscugic.h</text>
</a>
</g>
</g>
<!-- Node2&#45;&gt;Node15 -->
<g id="edge14_Node000002_Node000015" class="edge">
<title>Node2&#45;&gt;Node15</title>
<g id="a_edge14_Node000002_Node000015"><a xlink:title=" ">
<path fill="none" stroke="#63b8ff" d="M377.79,-167.59C383.72,-160.32 392.11,-150.02 399.34,-141.15"/>
<polygon fill="#63b8ff" stroke="#63b8ff" points="401.99,-143.43 405.59,-133.47 396.56,-139.01 401.99,-143.43"/>
</a>
</g>
</g>
<!-- Node16 -->
<g id="Node000016" class="node">
<title>Node16</title>
<g id="a_Node000016"><a xlink:title=" ">
<polygon fill="#e0e0e0" stroke="#999999" points="528.62,-132 461.62,-132 461.62,-112 528.62,-112 528.62,-132"/>
<text text-anchor="middle" x="495.12" y="-118.5" font-family="Helvetica,sans-Serif" font-size="10.00">xscutimer.h</text>
</a>
</g>
</g>
<!-- Node2&#45;&gt;Node16 -->
<g id="edge15_Node000002_Node000016" class="edge">
<title>Node2&#45;&gt;Node16</title>
<g id="a_edge15_Node000002_Node000016"><a xlink:title=" ">
<path fill="none" stroke="#63b8ff" d="M391.9,-167.59C411.49,-159.13 440.55,-146.58 462.85,-136.94"/>
<polygon fill="#63b8ff" stroke="#63b8ff" points="464,-140.26 471.79,-133.08 461.22,-133.83 464,-140.26"/>
</a>
</g>
</g>
<!-- Node4 -->
<g id="Node000004" class="node">
<title>Node4</title>
<g id="a_Node000004"><a xlink:title=" ">
<polygon fill="#e0e0e0" stroke="#999999" points="60.25,-76 0,-76 0,-56 60.25,-56 60.25,-76"/>
<text text-anchor="middle" x="30.12" y="-62.5" font-family="Helvetica,sans-Serif" font-size="10.00">xil_printf.h</text>
</a>
</g>
</g>
<!-- Node3&#45;&gt;Node4 -->
<g id="edge3_Node000003_Node000004" class="edge">
<title>Node3&#45;&gt;Node4</title>
<g id="a_edge3_Node000003_Node000004"><a xlink:title=" ">
<path fill="none" stroke="#63b8ff" d="M172.16,-111.59C144.22,-102.82 102.29,-89.66 71.23,-79.9"/>
<polygon fill="#63b8ff" stroke="#63b8ff" points="72.35,-76.59 61.76,-76.93 70.26,-83.27 72.35,-76.59"/>
</a>
</g>
</g>
<!-- Node5 -->
<g id="Node000005" class="node">
<title>Node5</title>
<g id="a_Node000005"><a xlink:title=" ">
<polygon fill="#e0e0e0" stroke="#999999" points="156.25,-76 78,-76 78,-56 156.25,-56 156.25,-76"/>
<text text-anchor="middle" x="117.12" y="-62.5" font-family="Helvetica,sans-Serif" font-size="10.00">xparameters.h</text>
</a>
</g>
</g>
<!-- Node3&#45;&gt;Node5 -->
<g id="edge4_Node000003_Node000005" class="edge">
<title>Node3&#45;&gt;Node5</title>
<g id="a_edge4_Node000003_Node000005"><a xlink:title=" ">
<path fill="none" stroke="#63b8ff" d="M187.32,-111.59C174.72,-103.59 156.37,-91.93 141.59,-82.54"/>
<polygon fill="#63b8ff" stroke="#63b8ff" points="143.64,-79.7 133.32,-77.29 139.89,-85.61 143.64,-79.7"/>
</a>
</g>
</g>
<!-- Node6 -->
<g id="Node000006" class="node">
<title>Node6</title>
<g id="a_Node000006"><a xlink:title=" ">
<polygon fill="#e0e0e0" stroke="#999999" points="230,-76 174.25,-76 174.25,-56 230,-56 230,-76"/>
<text text-anchor="middle" x="202.12" y="-62.5" font-family="Helvetica,sans-Serif" font-size="10.00">xusbps.h</text>
</a>
</g>
</g>
<!-- Node3&#45;&gt;Node6 -->
<g id="edge5_Node000003_Node000006" class="edge">
<title>Node3&#45;&gt;Node6</title>
<g id="a_edge5_Node000003_Node000006"><a xlink:title=" ">
<path fill="none" stroke="#63b8ff" d="M202.12,-111.59C202.12,-105.01 202.12,-95.96 202.12,-87.73"/>
<polygon fill="#63b8ff" stroke="#63b8ff" points="205.63,-87.81 202.13,-77.81 198.63,-87.81 205.63,-87.81"/>
</a>
</g>
</g>
<!-- Node7 -->
<g id="Node000007" class="node">
<title>Node7</title>
<g id="a_Node000007"><a xlink:title=" ">
<polygon fill="#e0e0e0" stroke="#999999" points="306.5,-76 247.75,-76 247.75,-56 306.5,-56 306.5,-76"/>
<text text-anchor="middle" x="277.12" y="-62.5" font-family="Helvetica,sans-Serif" font-size="10.00">inttypes.h</text>
</a>
</g>
</g>
<!-- Node3&#45;&gt;Node7 -->
<g id="edge6_Node000003_Node000007" class="edge">
<title>Node3&#45;&gt;Node7</title>
<g id="a_edge6_Node000003_Node000007"><a xlink:title=" ">
<path fill="none" stroke="#63b8ff" d="M215.19,-111.59C226.09,-103.74 241.88,-92.38 254.78,-83.09"/>
<polygon fill="#63b8ff" stroke="#63b8ff" points="256.66,-86.05 262.73,-77.36 252.57,-80.37 256.66,-86.05"/>
</a>
</g>
</g>
<!-- Node8 -->
<g id="Node000008" class="node">
<title>Node8</title>
<g id="a_Node000008"><a xlink:href="emulazione__git_8h.html" target="_top" xlink:title="Header file per funzioni riguardanti i GIT.">
<polygon fill="white" stroke="#666666" points="413.88,-76 324.38,-76 324.38,-56 413.88,-56 413.88,-76"/>
<text text-anchor="middle" x="369.12" y="-62.5" font-family="Helvetica,sans-Serif" font-size="10.00">emulazione_git.h</text>
</a>
</g>
</g>
<!-- Node3&#45;&gt;Node8 -->
<g id="edge7_Node000003_Node000008" class="edge">
<title>Node3&#45;&gt;Node8</title>
<g id="a_edge7_Node000003_Node000008"><a xlink:title=" ">
<path fill="none" stroke="#63b8ff" d="M231.21,-111.59C258.35,-102.82 299.06,-89.66 329.22,-79.9"/>
<polygon fill="#63b8ff" stroke="#63b8ff" points="329.93,-83.35 338.37,-76.95 327.78,-76.69 329.93,-83.35"/>
</a>
</g>
</g>
<!-- Node9 -->
<g id="Node000009" class="node">
<title>Node9</title>
<g id="a_Node000009"><a xlink:title=" ">
<polygon fill="#e0e0e0" stroke="#999999" points="263.5,-20 216.75,-20 216.75,0 263.5,0 263.5,-20"/>
<text text-anchor="middle" x="240.12" y="-6.5" font-family="Helvetica,sans-Serif" font-size="10.00">xil_io.h</text>
</a>
</g>
</g>
<!-- Node8&#45;&gt;Node9 -->
<g id="edge8_Node000008_Node000009" class="edge">
<title>Node8&#45;&gt;Node9</title>
<g id="a_edge8_Node000008_Node000009"><a xlink:title=" ">
<path fill="none" stroke="#63b8ff" d="M346.65,-55.59C326.34,-47.09 296.17,-34.46 273.12,-24.81"/>
<polygon fill="#63b8ff" stroke="#63b8ff" points="274.74,-21.7 264.17,-21.06 272.04,-28.15 274.74,-21.7"/>
</a>
</g>
</g>
<!-- Node10 -->
<g id="Node000010" class="node">
<title>Node10</title>
<g id="a_Node000010"><a xlink:title=" ">
<polygon fill="#e0e0e0" stroke="#999999" points="326.75,-20 281.5,-20 281.5,0 326.75,0 326.75,-20"/>
<text text-anchor="middle" x="304.12" y="-6.5" font-family="Helvetica,sans-Serif" font-size="10.00">stdio.h</text>
</a>
</g>
</g>
<!-- Node8&#45;&gt;Node10 -->
<g id="edge9_Node000008_Node000010" class="edge">
<title>Node8&#45;&gt;Node10</title>
<g id="a_edge9_Node000008_Node000010"><a xlink:title=" ">
<path fill="none" stroke="#63b8ff" d="M357.8,-55.59C348.48,-47.85 335.05,-36.69 323.95,-27.47"/>
<polygon fill="#63b8ff" stroke="#63b8ff" points="326.41,-24.96 316.48,-21.27 321.94,-30.35 326.41,-24.96"/>
</a>
</g>
</g>
<!-- Node11 -->
<g id="Node000011" class="node">
<title>Node11</title>
<g id="a_Node000011"><a xlink:title=" ">
<polygon fill="#e0e0e0" stroke="#999999" points="393.25,-20 345,-20 345,0 393.25,0 393.25,-20"/>
<text text-anchor="middle" x="369.12" y="-6.5" font-family="Helvetica,sans-Serif" font-size="10.00">stdint.h</text>
</a>
</g>
</g>
<!-- Node8&#45;&gt;Node11 -->
<g id="edge10_Node000008_Node000011" class="edge">
<title>Node8&#45;&gt;Node11</title>
<g id="a_edge10_Node000008_Node000011"><a xlink:title=" ">
<path fill="none" stroke="#63b8ff" d="M369.12,-55.59C369.12,-49.01 369.12,-39.96 369.12,-31.73"/>
<polygon fill="#63b8ff" stroke="#63b8ff" points="372.63,-31.81 369.13,-21.81 365.63,-31.81 372.63,-31.81"/>
</a>
</g>
</g>
<!-- Node12 -->
<g id="Node000012" class="node">
<title>Node12</title>
<g id="a_Node000012"><a xlink:title=" ">
<polygon fill="#e0e0e0" stroke="#999999" points="458.88,-20 411.38,-20 411.38,0 458.88,0 458.88,-20"/>
<text text-anchor="middle" x="435.12" y="-6.5" font-family="Helvetica,sans-Serif" font-size="10.00">xgpio.h</text>
</a>
</g>
</g>
<!-- Node8&#45;&gt;Node12 -->
<g id="edge11_Node000008_Node000012" class="edge">
<title>Node8&#45;&gt;Node12</title>
<g id="a_edge11_Node000008_Node000012"><a xlink:title=" ">
<path fill="none" stroke="#63b8ff" d="M380.62,-55.59C390.09,-47.85 403.73,-36.69 415,-27.47"/>
<polygon fill="#63b8ff" stroke="#63b8ff" points="417.07,-30.3 422.59,-21.26 412.63,-24.88 417.07,-30.3"/>
</a>
</g>
</g>
<!-- Node13 -->
<g id="Node000013" class="node">
<title>Node13</title>
<g id="a_Node000013"><a xlink:title=" ">
<polygon fill="#e0e0e0" stroke="#999999" points="527.75,-20 476.5,-20 476.5,0 527.75,0 527.75,-20"/>
<text text-anchor="middle" x="502.12" y="-6.5" font-family="Helvetica,sans-Serif" font-size="10.00">assert.h</text>
</a>
</g>
</g>
<!-- Node8&#45;&gt;Node13 -->
<g id="edge12_Node000008_Node000013" class="edge">
<title>Node8&#45;&gt;Node13</title>
<g id="a_edge12_Node000008_Node000013"><a xlink:title=" ">
<path fill="none" stroke="#63b8ff" d="M392.29,-55.59C413.33,-47.05 444.62,-34.35 468.43,-24.68"/>
<polygon fill="#63b8ff" stroke="#63b8ff" points="469.43,-28.05 477.38,-21.05 466.79,-21.57 469.43,-28.05"/>
</a>
</g>
</g>
</g>
</svg>
